<?xml version="1.0" encoding="UTF-8" standalone="no"?>
<svg
   xmlns:sketch="http://www.bohemiancoding.com/sketch/ns"
   xmlns:dc="http://purl.org/dc/elements/1.1/"
   xmlns:cc="http://creativecommons.org/ns#"
   xmlns:rdf="http://www.w3.org/1999/02/22-rdf-syntax-ns#"
   xmlns:svg="http://www.w3.org/2000/svg"
   xmlns="http://www.w3.org/2000/svg"
   xmlns:sodipodi="http://sodipodi.sourceforge.net/DTD/sodipodi-0.dtd"
   xmlns:inkscape="http://www.inkscape.org/namespaces/inkscape"
   version="1.1"
   x="0px"
   y="0px"
   viewBox="0 0 604.62829 349.52729"
   xml:space="preserve"
   id="svg37"
   sodipodi:docname="ci_cd.svg"
   width="604.6283"
   height="349.52728"
   inkscape:version="1.0.2 (394de47547, 2021-03-26)"
   inkscape:export-filename="/home/tcarreira/projects/tiago.carreira.pw/assets/images/sections/skills/ci_cd.png"
   inkscape:export-xdpi="27.313808"
   inkscape:export-ydpi="27.313808"><metadata
   id="metadata43"><rdf:RDF><cc:Work
       rdf:about=""><dc:format>image/svg+xml</dc:format><dc:type
         rdf:resource="http://purl.org/dc/dcmitype/StillImage" /></cc:Work></rdf:RDF></metadata><defs
   id="defs41"><mask
     maskUnits="userSpaceOnUse"
     id="mask1040"><rect
       style="fill:#ffffff;fill-opacity:1;stroke-width:0.0539595"
       id="rect1042"
       width="19.159935"
       height="20.862274"
       x="5.641995"
       y="-0.0029959346" /></mask></defs><sodipodi:namedview
   pagecolor="#ffffff"
   bordercolor="#666666"
   borderopacity="1"
   objecttolerance="10"
   gridtolerance="10"
   guidetolerance="10"
   inkscape:pageopacity="0"
   inkscape:pageshadow="2"
   inkscape:window-width="1280"
   inkscape:window-height="1051"
   id="namedview39"
   showgrid="false"
   inkscape:snap-bbox="false"
   inkscape:bbox-nodes="true"
   inkscape:snap-others="false"
   inkscape:snap-nodes="false"
   inkscape:zoom="1"
   inkscape:cx="339.92366"
   inkscape:cy="307.44929"
   inkscape:window-x="0"
   inkscape:window-y="0"
   inkscape:window-maximized="0"
   inkscape:current-layer="svg37"
   inkscape:snap-midpoints="true"
   inkscape:snap-center="true"
   inkscape:snap-object-midpoints="true"
   inkscape:snap-intersection-paths="true"
   inkscape:object-paths="true"
   inkscape:snap-bbox-midpoints="true"
   inkscape:snap-bbox-edge-midpoints="true"
   inkscape:bbox-paths="true"><inkscape:grid
     type="xygrid"
     id="grid1007"
     originx="77.644578"
     originy="-10.057344" /></sodipodi:namedview>
<style
   type="text/css"
   id="style2">
	.st0{fill:#FAFAFA;}
	.st1{fill:#F0F0F0;}
	.st2{fill:#FFFFFF;}
	.st3{fill:#E24329;}
	.st4{fill:#FCA326;}
	.st5{fill:#FC6D26;}
	.st6{fill:#8C929D;}
	.st7{fill:#2E2E2E;}
	.st8{fill:none;stroke:#FCA326;stroke-width:16;stroke-linecap:round;stroke-linejoin:round;stroke-miterlimit:10;}
	.st9{fill:none;stroke:#FC6D26;stroke-width:16;stroke-linecap:round;stroke-linejoin:round;stroke-miterlimit:10;}
	.st10{fill:none;stroke:#E24329;stroke-width:16;stroke-linecap:round;stroke-linejoin:round;stroke-miterlimit:10;}
	.st11{fill:none;stroke:#F0F0F0;stroke-miterlimit:10;}
	.st12{fill:#231F20;}
	.st13{fill:none;stroke:#231F20;stroke-width:16;stroke-linecap:round;stroke-linejoin:round;stroke-miterlimit:10;}
	.st14{display:none;}
	.st15{display:inline;opacity:0.1;fill:#E828E3;}
	.st16{display:inline;}
	.st17{opacity:0.1;fill:#E828E3;}
	.st18{font-family:'SourceSansPro-Semibold';}
	.st19{font-size:24px;}
	.st20{display:inline;fill:#DB3B21;}
	.st21{display:inline;fill:#FC6D26;}
	.st22{display:inline;fill:#2E2E2E;}
	.st23{display:inline;fill:#6E49CB;}
	.st24{display:inline;fill:#380D75;}
	.st25{display:inline;fill:#FCA121;}
	.st26{opacity:0.6;fill:none;stroke:#231F20;stroke-width:2;stroke-miterlimit:10;stroke-dasharray:12,6;}
	.st27{fill:none;stroke:#444444;stroke-width:1.5339;stroke-miterlimit:10;}
</style>

<g
   id="spacing_guides"
   class="st14"
   transform="translate(77.64459,-10.057344)">
	<path
   id="path40_18_"
   sketch:type="MSShapeGroup"
   class="st15"
   d="m 0,0.5 v 124 H 586 V 0.5 Z" />
	<path
   id="path40_16_"
   sketch:type="MSShapeGroup"
   class="st15"
   d="m 0,435.5 v 124 h 586 v -124 z" />
	<path
   id="path40_15_"
   sketch:type="MSShapeGroup"
   class="st15"
   d="m 462.2,560 h 124 V 0 h -124 z" />
	<g
   class="st16"
   id="g21">
		<text
   transform="translate(511.2881,283.3319)"
   class="st18 st19"
   id="text19">1x</text>
	</g>
	<g
   class="st16"
   id="g25">
		<text
   transform="translate(281.2881,500.9978)"
   class="st18 st19"
   id="text23">1x</text>
	</g>
	<g
   class="st16"
   id="g29">
		<text
   transform="translate(281.2881,65.998)"
   class="st18 st19"
   id="text27">1x</text>
	</g>
	<path
   id="path40_5_"
   sketch:type="MSShapeGroup"
   class="st15"
   d="M 0,560 H 124 V 0 H 0 Z" />
	<g
   class="st16"
   id="g34">
		<text
   transform="translate(51.2881,283.3319)"
   class="st18 st19"
   id="text32">1x</text>
	</g>
</g>
<style
   id="style868"><![CDATA[.B{fill-rule:evenodd}.C{fill:#dcd9d8}.D{fill:#d33833}.E{fill:#231f20}.F{fill:#f7e4cd}.G{stroke:#d33833}.H{stroke-width:.257}]]></style><style
   type="text/css"
   id="style1044">
	.st0{fill:#FAFAFA;}
	.st1{fill:#F0F0F0;}
	.st2{fill:#FFFFFF;}
	.st3{fill:#E24329;}
	.st4{fill:#FCA326;}
	.st5{fill:#FC6D26;}
	.st6{fill:#8C929D;}
	.st7{fill:#2E2E2E;}
	.st8{fill:none;stroke:#FCA326;stroke-width:16;stroke-linecap:round;stroke-linejoin:round;stroke-miterlimit:10;}
	.st9{fill:none;stroke:#FC6D26;stroke-width:16;stroke-linecap:round;stroke-linejoin:round;stroke-miterlimit:10;}
	.st10{fill:none;stroke:#E24329;stroke-width:16;stroke-linecap:round;stroke-linejoin:round;stroke-miterlimit:10;}
	.st11{fill:none;stroke:#F0F0F0;stroke-miterlimit:10;}
	.st12{fill:#231F20;}
	.st13{fill:none;stroke:#231F20;stroke-width:16;stroke-linecap:round;stroke-linejoin:round;stroke-miterlimit:10;}
	.st14{display:none;}
	.st15{display:inline;opacity:0.1;fill:#E828E3;}
	.st16{display:inline;}
	.st17{opacity:0.1;fill:#E828E3;}
	.st18{font-family:'SourceSansPro-Semibold';}
	.st19{font-size:24px;}
	.st20{display:inline;fill:#DB3B21;}
	.st21{display:inline;fill:#FC6D26;}
	.st22{display:inline;fill:#2E2E2E;}
	.st23{display:inline;fill:#6E49CB;}
	.st24{display:inline;fill:#380D75;}
	.st25{display:inline;fill:#FCA121;}
	.st26{opacity:0.6;fill:none;stroke:#231F20;stroke-width:2;stroke-miterlimit:10;stroke-dasharray:12,6;}
	.st27{fill:none;stroke:#444444;stroke-width:1.5339;stroke-miterlimit:10;}
</style><g
   id="g1110"
   transform="matrix(1.1160316,0,0,1.1160316,-138.6401,-135.92748)"><g
     id="logo_art">
	<g
   id="g1055">
		<path
   id="path50_2_"
   class="st3"
   d="m 293.026,434.983 v 0 L 355.225,243.661 H 230.918 Z" />
		<path
   id="path66_6_"
   class="st4"
   d="m 143.798,243.662 v 0 l -18.941,58.126 c -1.714,5.278 0.137,11.104 4.661,14.394 l 163.509,118.801 z" />
		<path
   id="path74_2_"
   class="st3"
   d="m 143.798,243.662 h 87.12 L 193.424,128.438 c -1.919,-5.895 -10.282,-5.895 -12.27,0 z" />
		<path
   id="path82_6_"
   class="st4"
   d="m 442.346,243.662 v 0 l 18.873,58.126 c 1.714,5.278 -0.137,11.104 -4.661,14.394 L 293.026,434.983 Z" />
		<path
   id="path86_2_"
   class="st3"
   d="m 442.346,243.662 h -87.12 l 37.425,-115.224 c 1.919,-5.895 10.282,-5.895 12.27,0 z" />
		<polygon
   class="st5"
   points="442.346,243.662 293.026,434.983 355.225,243.662 "
   id="polygon1051" />
		<polygon
   class="st5"
   points="230.918,243.662 293.026,434.983 143.798,243.662 "
   id="polygon1053" />
	</g>
</g><g
     id="spacing_guides-3"
     class="st14">
	<path
   id="path40_18_-6"
   sketch:type="MSShapeGroup"
   class="st15"
   d="m 0,0.5 v 124 H 586 V 0.5 Z" />
	<path
   id="path40_16_-7"
   sketch:type="MSShapeGroup"
   class="st15"
   d="m 0,435.5 v 124 h 586 v -124 z" />
	<path
   id="path40_15_-5"
   sketch:type="MSShapeGroup"
   class="st15"
   d="m 462.2,560 h 124 V 0 h -124 z" />
	<g
   class="st16"
   id="g1063">
		<text
   transform="translate(511.2881,283.3319)"
   class="st18 st19"
   id="text1061">1x</text>
	</g>
	<g
   class="st16"
   id="g1067">
		<text
   transform="translate(281.2881,500.9978)"
   class="st18 st19"
   id="text1065">1x</text>
	</g>
	<g
   class="st16"
   id="g1071">
		<text
   transform="translate(281.2881,65.998)"
   class="st18 st19"
   id="text1069">1x</text>
	</g>
	<path
   id="path40_5_-3"
   sketch:type="MSShapeGroup"
   class="st15"
   d="M 0,560 H 124 V 0 H 0 Z" />
	<g
   class="st16"
   id="g1076">
		<text
   transform="translate(51.2881,283.3319)"
   class="st18 st19"
   id="text1074">1x</text>
	</g>
</g></g><g
   id="g1005"
   transform="matrix(16.672656,0,0,16.691357,191.11428,0.05000621)"
   mask="url(#mask1040)"><g
     class="B"
     id="g886"><path
       d="m 20.796,15.484 -1.7,0.257 -2.31,0.257 -1.496,0.043 -1.454,-0.043 -1.112,-0.342 -0.983,-1.07 -0.77,-2.18 -0.17,-0.47 L 9.775,11.594 9.175,10.611 8.74,9.2 9.21,7.96 l 1.112,-0.385 0.898,0.428 0.428,0.94 0.513,-0.086 0.17,-0.214 -0.17,-0.983 -0.043,-1.24 0.257,-1.7 -0.01,-0.977 0.78,-1.246 1.368,-0.983 2.392,-1.037 2.65,0.385 2.31,1.667 1.07,1.7 0.684,1.24 0.17,3.078 -0.513,2.65 -0.94,2.35 -0.898,1.24"
       fill="#f0d6b7"
       id="path876" /><path
       d="m 19.342,22.88 -6.114,0.257 v 1.026 l 0.513,3.59 -0.257,0.3 L 9.21,26.6 8.91,26.087 8.482,21.257 7.499,18.35 7.285,17.666 l 3.42,-2.35 1.07,-0.428 0.94,1.154 0.812,0.727 0.94,0.3 0.427,0.128 0.513,2.223 0.385,0.47 0.983,-0.342 -0.684,1.325 3.72,1.753 -0.47,0.257"
       fill="#335061"
       id="path878" /><path
       d="M 9.21,7.96 10.322,7.575 11.22,8.003 11.648,8.943 12.161,8.857 12.289,8.344 12.032,7.361 12.289,5.009 12.075,3.726 12.845,2.828 14.512,1.503 14.042,0.863 11.69,2.017 10.707,2.787 10.151,3.984 9.296,5.138 9.039,6.506 9.209,7.96"
       fill="#6d6b6d"
       id="path880" /><path
       d="m 10.962,3.94 c 0,0 0.64,-1.582 3.207,-2.35 2.567,-0.768 0.128,-0.556 0.128,-0.556 l -2.78,1.07 -1.07,1.07 -0.47,0.855 0.983,-0.086 M 9.68,7.66 c 0,0 -0.898,-2.993 2.523,-3.42 L 12.075,3.727 9.725,4.283 9.041,6.506 9.211,7.96 9.681,7.66"
       class="C"
       id="path882" /><path
       d="m 11.048,11.636 0.56,-0.542 a 0.36,0.36 0 0 0 0.295,0.329 c 0.043,0.3 0.17,2.993 2,4.447 0.168,0.133 -1.368,-0.214 -1.368,-0.214 l -1.368,-2.138 m 7.738,-2.695 c 0,0 0.1,-1.296 0.45,-1.196 0.35,0.1 0.35,0.45 0.35,0.45 0,0 -0.848,0.548 -0.798,0.748"
       class="F"
       id="path884" /></g><path
     d="m 22.464,6.077 c 0,0 -0.705,0.15 -0.77,0.77 -0.065,0.62 0.77,0.128 0.898,0.086 M 17.3,6.12 c 0,0 -0.94,0.128 -0.94,0.727 0,0.599 1.07,0.556 1.368,0.3"
     class="F"
     id="path888" /><g
     class="B"
     id="g910"><path
       d="m 11.475,8.9 c 0,0 -1.625,-0.984 -1.795,-0.043 -0.17,0.941 -0.556,1.625 0.257,2.608 L 9.381,11.295 8.868,9.97 8.698,8.687 9.681,7.661 l 1.112,0.086 0.64,0.513 0.043,0.64 m 0.77,-2.694 c 0,0 0.727,-3.762 4.404,-4.5 3.027,-0.598 4.617,0.128 5.216,0.812 0,0 -2.694,-3.206 -5.26,-2.223 -2.566,0.983 -4.446,2.8 -4.406,3.943 l 0.043,1.967 m 9.92,-3.25 c 0,0 -1.24,-0.043 -1.283,1.07 a 0.86,0.86 0 0 0 0.085,0.342 c 0,0 0.984,-1.112 1.582,-0.513 m -5.813,0.628 c 0,0 -0.213,-1.706 -1.668,-0.714 -0.94,0.64 -0.855,1.54 -0.684,1.7 0.171,0.16 0.125,0.515 0.255,0.28 0.13,-0.235 0.087,-1.006 0.558,-1.22 0.471,-0.214 1.24,-0.453 1.54,-0.055"
       class="F"
       id="path890" /><path
       d="m 12.715,16.04 -4.02,1.796 c 0,0 1.667,6.627 0.812,8.68 L 8.907,26.302 8.864,23.779 7.756,19 l -0.47,-1.325 4.2,-2.822 1.24,1.197 m 0.404,3.655 0.57,0.696 v 2.565 h -0.684 l -0.085,-2 c 0,-0.214 0.085,-0.983 0.085,-0.983 m 0.127,3.367 -1.924,0.085 0.556,0.385 1.368,0.214"
       fill="#49728b"
       id="path892" /><g
       fill="#335061"
       id="g898"><path
         d="m 19.727,22.923 1.582,-0.043 0.385,3.934 -1.625,0.214 -0.342,-4.104"
         id="path894" /><path
         d="m 20.155,22.923 2.394,-0.128 0.983,-2.608 c 0,-0.128 0.855,-3.59 0.855,-3.59 l -1.924,-2.01 -0.385,-0.342 -1.026,1.026 v 3.976 l -0.898,3.677"
         id="path896" /></g><path
       d="m 21.224,22.624 -1.496,0.3 0.214,1.197 c 0.556,0.257 1.496,-0.428 1.496,-0.428 m -0.172,-8.55 2.993,2.223 0.086,-1.026 -2.266,-2.095 -0.812,0.898"
       fill="#49728b"
       id="path900" /><path
       d="m 14.627,31.346 -0.885,-3.592 -0.44,-2.65 -0.073,-1.967 4.006,-0.213 h 2.493 l -0.227,4.5 0.385,3.463 -0.043,0.64 -3.25,0.257 -1.967,-0.428"
       fill="#ffffff"
       id="path902" /><path
       d="m 19.17,22.88 c 0,0 -0.214,4.447 0.428,7.6 0,0 -1.283,0.812 -3.164,1.026 l 3.59,-0.128 0.428,-0.257 -0.513,-7.012 -0.128,-1.497"
       class="C"
       id="path904" /><path
       d="m 21.767,26.472 1.667,-0.47 3.164,-0.17 0.47,-1.454 -0.855,-2.523 -0.983,-0.128 -1.368,0.428 -1.313,0.64 -0.697,-0.128 -0.543,0.213"
       fill="#ffffff"
       id="path906" /><path
       d="m 21.737,25.616 c 0,0 1.112,-0.513 1.283,-0.47 l -0.47,-2.352 0.556,-0.214 0.385,2.48 2.608,0.128 c 0,0 0.513,-0.983 0.385,-2 l 0.47,1.368 0.043,0.77 -0.684,1.026 -0.77,0.17 -1.283,-0.043 -0.428,-0.556 -1.496,0.214 -0.47,0.17"
       class="C"
       id="path908" /></g><path
     d="m 20.056,22.58 -0.94,-2.394 -0.983,-1.41 c 0,0 0.214,-0.6 0.513,-0.6 h 0.983 l 0.94,0.342 -0.085,1.582 -0.428,2.48"
     fill="#ffffff"
     id="path912" /><path
     d="m 20.24,21.77 c 0,0 -1.197,-2.31 -1.197,-2.65 0,0 0.214,-0.513 0.513,-0.385 0.299,0.128 0.94,0.47 0.94,0.47 v -0.812 l -1.454,-0.3 -0.983,0.128 1.667,3.934 0.342,0.043"
     class="B C"
     id="path914" /><path
     d="m 15.01,16.125 -1.184,-0.13 -1.112,-0.342 v 0.385 l 0.543,0.6 1.7,0.77"
     fill="#ffffff"
     id="path916" /><g
     class="B"
     id="g922"><path
       d="m 13.1,16.254 c 0,0 1.325,0.556 1.753,0.428 l 0.043,0.513 -1.197,-0.256 -0.727,-0.513 0.128,-0.17"
       class="C"
       id="path918" /><path
       d="m 21.762,18.323 c -0.725,-0.02 -1.38,-0.107 -1.955,-0.27 0.04,-0.235 -0.034,-0.466 0.025,-0.636 0.16,-0.115 0.428,-0.113 0.67,-0.14 -0.21,-0.103 -0.503,-0.143 -0.744,-0.084 -0.006,-0.163 -0.08,-0.264 -0.123,-0.392 0.408,-0.146 1.37,-1.1 1.912,-0.784 0.258,0.15 0.368,1.01 0.388,1.426 0.017,0.346 -0.03,0.696 -0.173,0.88"
       class="D"
       id="path920" /></g><path
     d="m 21.762,18.323 c -0.725,-0.02 -1.38,-0.107 -1.955,-0.27 0.04,-0.235 -0.034,-0.466 0.025,-0.636 0.16,-0.115 0.428,-0.113 0.67,-0.14 -0.21,-0.103 -0.503,-0.143 -0.744,-0.084 -0.006,-0.163 -0.08,-0.264 -0.123,-0.392 0.408,-0.146 1.37,-1.1 1.912,-0.784 0.258,0.15 0.368,1.01 0.388,1.426 0.017,0.346 -0.03,0.696 -0.173,0.88 z"
     fill="none"
     class="G H"
     id="path924" /><path
     d="m 18.293,17.137 -0.006,0.166 c -0.227,0.15 -0.592,0.147 -0.84,0.272 0.366,0.016 0.655,0.104 0.905,0.23 l -0.016,0.415 c -0.415,0.284 -0.794,0.708 -1.283,0.974 -0.23,0.126 -1.042,0.45 -1.288,0.393 -0.14,-0.032 -0.152,-0.205 -0.207,-0.368 -0.118,-0.35 -0.39,-0.903 -0.415,-1.428 -0.03,-0.663 -0.097,-1.773 0.617,-1.637 a 6.38,6.38 0 0 1 1.692,0.619 c 0.273,0.15 0.43,0.333 0.844,0.365"
     class="B D"
     id="path926" /><path
     d="m 18.293,17.137 -0.006,0.166 c -0.227,0.15 -0.592,0.147 -0.84,0.272 0.366,0.016 0.655,0.104 0.905,0.23 l -0.016,0.415 c -0.415,0.284 -0.794,0.708 -1.283,0.974 -0.23,0.126 -1.042,0.45 -1.288,0.393 -0.14,-0.032 -0.152,-0.205 -0.207,-0.368 -0.118,-0.35 -0.39,-0.903 -0.415,-1.428 -0.03,-0.663 -0.097,-1.773 0.617,-1.637 a 6.38,6.38 0 0 1 1.692,0.619 c 0.273,0.15 0.43,0.333 0.844,0.365 z"
     fill="none"
     class="G H"
     id="path928" /><path
     d="m 18.705,17.928 c -0.063,-0.36 -0.137,-0.464 -0.108,-0.78 0.963,-0.642 1.143,1.102 0.108,0.78"
     class="B D"
     id="path930" /><path
     d="m 18.705,17.928 c -0.063,-0.36 -0.137,-0.464 -0.108,-0.78 0.963,-0.642 1.143,1.102 0.108,0.78 z"
     fill="none"
     class="G H"
     id="path932" /><path
     d="m 20.1,18.22 c 0,0 -0.3,-0.428 -0.086,-0.556 0.214,-0.128 0.428,0 0.556,-0.214 0.128,-0.214 0,-0.342 0.043,-0.6 0.043,-0.258 0.257,-0.3 0.47,-0.342 0.213,-0.042 0.812,-0.128 0.898,0.086 l -0.257,-0.77 -0.513,-0.17 -1.625,0.94 -0.086,0.47 v 0.94 m -3.9,1.626 -0.166,-2 c -0.1,-0.995 0.24,-0.822 1.102,-0.822 0.132,0 0.8,0.157 0.86,0.257 0.233,0.476 -0.4,0.37 0.27,0.73 0.556,0.303 1.538,-0.184 1.313,-0.858 -0.126,-0.15 -0.655,-0.047 -0.845,-0.145 l -1.002,-0.52 c -0.425,-0.22 -1.407,-0.542 -1.86,-0.234 -1.148,0.78 0.072,2.732 0.482,3.546"
     fill="#ef3d3a"
     class="B"
     id="path934" /><path
     d="m 16.735,4.483 c -1.165,-0.27 -1.744,0.488 -2.098,1.275 -0.315,-0.076 -0.2,-0.505 -0.1,-0.724 0.2,-0.574 1.05,-1.337 1.736,-1.234 0.296,0.045 0.696,0.315 0.472,0.683 m 5.668,1.317 0.055,0.002 c 0.263,0.547 0.5,1.127 0.823,1.6 C 23.068,7.92 21.606,8.379 21.628,7.448 21.944,7.31 22.49,7.42 22.771,7.243 22.609,6.798 22.375,6.419 22.411,5.79 m -5.08,0.034 c 0.25,0.458 0.33,0.94 0.686,1.285 0.16,0.156 0.47,0.346 0.317,0.78 a 1,1 0 0 1 -0.45,0.375 c -0.555,0.164 -1.85,0.034 -1.4,-0.658 0.46,0.02 1.076,0.298 1.42,-0.035 -0.264,-0.42 -0.733,-1.255 -0.56,-1.746 m 4.87,4.655 c -0.836,0.537 -1.768,1.12 -3.138,0.986 -0.293,-0.254 -0.404,-0.82 -0.12,-1.195 0.148,0.254 0.055,0.723 0.468,0.793 0.777,0.133 1.682,-0.475 2.24,-0.688 0.347,-0.585 -0.03,-0.8 -0.342,-1.176 -0.64,-0.77 -1.497,-1.726 -1.466,-2.88 0.258,-0.187 0.28,0.286 0.318,0.372 0.334,0.78 1.174,1.78 1.787,2.45 0.15,0.165 0.4,0.323 0.426,0.432 0.08,0.317 -0.207,0.696 -0.174,0.907 M 11.183,9.914 C 10.921,9.764 10.859,9.106 10.551,9.087 10.111,9.06 10.191,9.942 10.193,10.457 9.89,10.182 9.837,9.337 10.059,8.902 9.806,8.778 9.692,9.039 9.552,9.132 c 0.18,-1.312 1.92,-0.6 1.63,0.783 m 11.555,1.1 c -0.4,0.74 -0.94,1.556 -2.082,1.58 -0.023,-0.24 -0.04,-0.603 10e-4,-0.747 0.873,-0.084 1.412,-0.528 2.08,-0.833 m -5.47,0.48 c 0.728,0.383 2.067,0.424 3.057,0.395 0.053,0.217 0.052,0.485 0.054,0.75 -1.273,0.063 -2.777,-0.25 -3.1,-1.145 m -0.14,0.714 c 0.504,1.265 2.235,1.12 3.695,1.084 -0.064,0.164 -0.204,0.358 -0.377,0.428 -0.468,0.2 -1.758,0.335 -2.407,-0.01 -0.412,-0.22 -0.676,-0.714 -0.902,-1.004 -0.1,-0.14 -0.652,-0.498 -0.008,-0.5"
     class="E B"
     id="path936" /><path
     d="m 22.144,19.196 -1.858,2.945 c 0.294,-0.864 0.42,-2.31 0.464,-3.414 0.615,-0.288 1.142,0.065 1.394,0.47"
     fill="#81b0c4"
     class="B"
     id="path938" /><path
     d="m 25.324,22.834 c -0.662,0.132 -1.127,0.776 -1.772,0.734 0.355,-0.5 0.976,-0.7 1.772,-0.734 m 0.292,1.036 c -0.54,0.057 -1.173,0.144 -1.72,0.1 0.26,-0.396 1.257,-0.26 1.72,-0.1 m 0.187,0.892 c -0.606,0.013 -1.36,0.001 -1.936,-0.047 0.34,-0.366 1.543,-0.136 1.936,0.047"
     class="E B"
     id="path940" /><path
     d="m 21.003,27.206 c 0.087,0.76 0.39,1.533 0.35,2.366 -0.335,0.113 -0.528,0.212 -0.977,0.21 l -0.098,-2.467 c 0.22,0.015 0.547,-0.158 0.724,-0.1"
     class="B C"
     id="path942" /><path
     d="m 20.026,15.986 c -0.304,0.2 -0.564,0.447 -0.856,0.66 -0.648,0.032 -1.002,-0.045 -1.478,-0.417 0.008,-0.03 0.056,-0.017 0.057,-0.053 0.694,0.31 1.576,-0.126 2.277,-0.19"
     fill="#f0d6b7"
     class="B"
     id="path944" /><path
     d="m 16.383,20.716 c 0.19,-0.826 0.938,-1.254 1.616,-1.71 0.7,0.89 1.126,2.03 1.595,3.134 -1.108,-0.334 -2.24,-0.876 -3.21,-1.425"
     fill="#81b0c4"
     class="B"
     id="path946" /><path
     d="m 20.28,27.316 c -0.028,0.675 0.066,1.76 0.098,2.467 0.45,10e-4 0.642,-0.098 0.977,-0.21 0.038,-0.834 -0.264,-1.605 -0.35,-2.366 -0.177,-0.047 -0.503,0.125 -0.724,0.1 z m -6.992,-3.84 c 0.296,2.722 0.725,5 1.512,7.42 1.746,0.53 3.85,0.576 5.394,0.098 -0.283,-1.36 -0.16,-3.017 -0.325,-4.47 l -0.232,-3.303 c -1.87,-0.39 -4.513,-0.09 -6.348,0.252 z m 6.8,-0.235 c -0.016,1.17 0.052,2.322 0.142,3.493 L 21.4,26.53 c -0.135,-1.127 -0.12,-2.395 -0.395,-3.392 -0.32,0.003 -0.6,-0.004 -0.918,0.103 z m 2.277,-0.188 c -0.213,-0.05 -0.46,-0.002 -0.665,0.002 l 0.4,3.005 c 0.32,0.01 0.49,-0.14 0.755,-0.192 0.014,-0.878 -0.077,-2.088 -0.5,-2.815 z m 3.448,3.15 c 0.668,-0.162 1.087,-0.98 0.9,-1.82 -0.125,-0.564 -0.348,-1.627 -0.587,-1.988 -0.176,-0.267 -0.655,-0.617 -1.037,-0.372 -0.622,0.398 -1.717,0.514 -2.17,0.995 0.227,0.757 0.298,1.796 0.392,2.755 0.777,0.048 1.732,-0.214 2.378,0.064 -0.45,0.146 -1.036,0.147 -1.425,0.36 0.318,0.154 1.064,0.123 1.55,0.005 z m -6.208,-4.06 c -0.47,-1.103 -0.895,-2.246 -1.595,-3.134 -0.678,0.455 -1.425,0.883 -1.616,1.71 0.97,0.55 2.103,1.09 3.21,1.425 z m 1.156,-3.415 c -0.044,1.103 -0.17,2.55 -0.464,3.414 0.7,-0.893 1.267,-1.933 1.858,-2.945 -0.252,-0.404 -0.78,-0.757 -1.394,-0.47 z m -1.3,-0.466 c -0.266,-0.03 -0.49,0.305 -0.837,0.16 l -0.232,0.268 c 0.763,0.92 1.1,2.224 1.7,3.304 0.316,-1.038 0.28,-2.175 0.35,-3.308 -0.434,0.028 -0.675,-0.393 -0.98,-0.425 z M 18.618,17.15 c -0.028,0.315 0.045,0.418 0.108,0.78 1.035,0.324 0.854,-1.42 -0.108,-0.78 z M 17.47,16.773 a 6.38,6.38 0 0 0 -1.692,-0.619 c -0.714,-0.137 -0.647,0.974 -0.617,1.637 0.024,0.525 0.297,1.08 0.415,1.428 0.056,0.163 0.068,0.335 0.207,0.368 0.246,0.057 1.057,-0.267 1.288,-0.393 0.49,-0.267 0.868,-0.7 1.283,-0.974 l 0.016,-0.415 c -0.25,-0.124 -0.538,-0.213 -0.905,-0.23 0.25,-0.125 0.614,-0.123 0.84,-0.272 l 0.006,-0.166 c -0.414,-0.032 -0.57,-0.216 -0.844,-0.365 z m -4.26,-0.774 c -0.37,0.376 1.038,0.888 1.487,0.916 -0.003,-0.238 0.136,-0.462 0.108,-0.633 -0.533,-0.094 -1.233,-0.032 -1.594,-0.283 z m 4.56,0.176 c -0.002,0.037 -0.05,0.023 -0.057,0.053 0.476,0.372 0.83,0.45 1.478,0.417 l 0.856,-0.66 c -0.7,0.063 -1.583,0.498 -2.277,0.19 z m 4.186,1.27 c -0.02,-0.418 -0.13,-1.276 -0.388,-1.426 -0.542,-0.316 -1.505,0.638 -1.912,0.784 0.044,0.128 0.118,0.23 0.123,0.392 0.24,-0.06 0.535,-0.02 0.744,0.084 -0.242,0.027 -0.5,0.025 -0.67,0.14 -0.06,0.17 0.014,0.4 -0.025,0.636 0.574,0.162 1.23,0.248 1.955,0.27 0.14,-0.183 0.19,-0.533 0.173,-0.88 z m -9.37,-1.082 c -0.116,-0.083 -0.903,-1.106 -1,-1.064 -1.423,0.56 -2.753,1.53 -3.942,2.45 1.134,2.432 1.59,5.413 1.672,8.285 1.3,0.607 2.44,1.483 4.2,1.574 L 13.01,23.52 c -0.443,-0.187 -1.078,0.008 -1.492,-0.058 -0.004,-0.5 0.633,-0.22 0.686,-0.554 0.04,-0.254 -0.35,-0.273 -0.223,-0.673 0.324,0.118 0.494,0.378 0.84,0.475 0.316,-0.69 -0.004,-1.912 0.04,-2.5 0.01,-0.108 0.054,-0.6 0.297,-0.514 0.215,0.076 -0.012,1.31 0.01,1.855 0.02,0.503 -0.06,1 0.143,1.306 1.703,-0.232 3.433,-0.382 5.275,-0.432 -0.405,-0.174 -0.887,-0.34 -1.415,-0.636 -0.286,-0.16 -1.188,-0.497 -1.27,-0.77 -0.132,-0.433 0.346,-0.664 0.427,-1.035 -0.86,0.47 -1.027,-0.45 -1.23,-1.1 -0.184,-0.59 -0.29,-1.03 -0.334,-1.37 -0.74,-0.353 -1.532,-0.7 -2.17,-1.163 z m 8.617,-0.94 c 1.186,-0.575 1.4,2.15 0.935,3.026 0.072,0.262 0.32,0.362 0.42,0.597 l -2.07,3.463 c 0.502,-0.313 1.22,-0.056 1.8,-0.3 0.216,-0.085 0.372,-0.58 0.536,-0.975 0.45,-1.088 0.922,-2.46 1.132,-3.5 0.047,-0.237 0.177,-0.752 0.148,-0.963 -0.052,-0.377 -0.563,-0.657 -0.824,-0.9 L 22,14.659 c -0.203,0.3 -0.638,0.5 -0.804,0.744 z M 9.855,4.908 C 9.29,5.53 9.408,6.694 9.477,7.523 c 1.02,-0.642 2.376,0.05 2.364,1.143 0.488,-0.013 0.182,-0.61 0.094,-0.993 C 11.647,6.419 12.421,5.057 11.97,3.91 11.095,3.976 10.377,4.334 9.856,4.908 Z M 13.897,1.3 c -1.28,0.362 -2.918,1.292 -3.443,2.44 0.407,-0.06 0.69,-0.264 1.09,-0.3 0.152,-0.01 0.35,0.064 0.525,0.02 0.347,-0.086 0.64,-0.865 0.903,-1.155 0.256,-0.283 0.563,-0.404 0.773,-0.662 0.135,-0.065 0.335,-0.06 0.342,-0.263 -0.06,-0.063 -0.12,-0.1 -0.2,-0.1 z m 6.657,0.34 C 19.227,0.893 16.98,0.33 15.568,1.033 c -1.14,0.568 -2.68,1.508 -3.205,2.7 0.49,1.15 -0.145,2.203 -0.186,3.37 -0.022,0.62 0.292,1.163 0.316,1.84 -0.168,0.277 -0.68,0.31 -1.036,0.292 -0.12,-0.598 -0.33,-1.27 -0.944,-1.338 -0.87,-0.095 -1.508,0.626 -1.548,1.38 -0.047,0.886 0.68,2.355 1.712,2.253 0.398,-0.04 0.496,-0.44 0.93,-0.435 0.235,0.47 -0.363,0.617 -0.424,0.952 -0.016,0.087 0.05,0.426 0.088,0.585 0.187,0.774 0.605,1.775 1.016,2.364 0.522,0.747 1.546,0.86 2.65,0.933 0.197,-0.424 0.922,-0.39 1.395,-0.278 -0.566,-0.224 -1.093,-0.768 -1.53,-1.25 -0.5,-0.552 -1.01,-1.145 -1.035,-1.867 0.947,1.314 1.73,2.462 3.452,3.04 1.303,0.437 2.826,-0.2 3.827,-0.904 0.416,-0.292 0.664,-0.756 0.96,-1.18 1.105,-1.6 1.62,-3.86 1.508,-6.06 C 23.467,6.523 23.469,5.62 23.164,5.01 22.846,4.372 21.77,3.8 21.14,4.378 21.023,3.758 21.664,3.374 22.416,3.598 21.88,2.906 21.316,2.074 20.554,1.644 Z m 2.473,20.467 c 1.037,-0.516 2.975,-1.388 3.626,0.002 0.24,0.512 0.522,1.378 0.646,1.907 0.176,0.746 -0.2,2.314 -0.957,2.565 -0.677,0.22 -1.468,0.208 -2.284,0.044 -0.096,-0.08 -0.203,-0.22 -0.278,-0.364 -0.583,-0.023 -1.128,0.03 -1.588,0.27 0.044,0.43 -0.248,0.5 -0.52,0.59 -0.203,0.803 0.405,1.852 0.26,2.584 -0.104,0.522 -0.746,0.602 -1.217,0.7 -0.015,0.3 0.02,0.532 0.053,0.777 -0.108,0.397 -0.592,0.624 -1.05,0.68 -1.508,0.18 -3.798,0.263 -5.25,-0.26 -0.405,-0.993 -0.724,-2.2 -1.06,-3.335 -1.415,0.15 -2.56,-0.61 -3.638,-1.11 C 9.396,26.984 8.87,26.887 8.74,26.591 8.605,26.303 8.66,25.751 8.627,25.231 8.542,23.901 8.467,22.616 8.127,21.253 7.969,20.641 7.694,20.103 7.502,19.513 7.325,18.967 7.015,18.293 6.934,17.747 6.814,16.94 7.574,16.895 8.06,16.545 c 0.75,-0.54 1.34,-0.84 2.155,-1.328 0.24,-0.145 0.968,-0.5 1.05,-0.68 0.164,-0.334 -0.282,-0.805 -0.4,-1.067 -0.19,-0.414 -0.287,-0.766 -0.314,-1.175 C 9.868,12.187 9.351,11.781 9.038,11.323 8.521,10.565 8.162,9.163 8.61,8.096 8.645,8.012 8.81,7.846 8.846,7.718 8.896,7.464 8.75,7.126 8.741,6.856 c -0.047,-1.387 0.235,-2.58 1.168,-3 0.38,-1.5 1.735,-2.01 3.013,-2.762 0.478,-0.28 1.004,-0.46 1.548,-0.66 1.95,-0.718 4.944,-0.583 6.563,0.642 0.686,0.52 1.784,1.615 2.176,2.41 1.037,2.095 0.963,5.597 0.238,8.146 -0.097,0.342 -0.24,0.845 -0.436,1.256 -0.138,0.287 -0.565,0.86 -0.513,1.115 0.053,0.262 0.975,0.962 1.173,1.153 0.356,0.343 1.032,0.8 1.087,1.232 0.06,0.46 -0.203,1.092 -0.336,1.537 l -1.38,4.18"
     class="B E"
     id="path948" /><path
     d="m 16.107,11.83 c 0.056,-0.075 0.366,-0.19 0.8,0.02 0,0 -0.513,0.086 -0.47,0.94 l -0.214,-0.043 c 0,0 -0.22,-0.776 -0.114,-0.918"
     class="B F"
     id="path950" /><path
     d="m 19.856,19.182 c 0,0.13 -0.105,0.235 -0.235,0.235 -0.13,0 -0.235,-0.105 -0.235,-0.235 0,-0.13 0.105,-0.235 0.235,-0.235 0.13,0 0.235,0.105 0.235,0.235 m 0.234,1.1 c 0,0.13 -0.105,0.235 -0.235,0.235 -0.13,0 -0.235,-0.105 -0.235,-0.235 0,-0.13 0.105,-0.235 0.235,-0.235 0.13,0 0.235,0.105 0.235,0.235"
     fill="#1d1919"
     class="B"
     id="path952" /></g></svg>
