<?xml version="1.0" encoding="UTF-8" standalone="no"?>
<svg
   width="2185.6079"
   height="1414.2578"
   viewBox="0 0 223.80625 144.79306"
   version="1.1"
   id="svg36"
   sodipodi:docname="containers.svg"
   inkscape:version="1.1 (c4e8f9e, 2021-05-24)"
   inkscape:export-filename="/home/tcarreira/projects/tiago.carreira.pw/assets/images/sections/skills/docker.png"
   inkscape:export-xdpi="6.7880125"
   inkscape:export-ydpi="6.7880125"
   xmlns:inkscape="http://www.inkscape.org/namespaces/inkscape"
   xmlns:sodipodi="http://sodipodi.sourceforge.net/DTD/sodipodi-0.dtd"
   xmlns="http://www.w3.org/2000/svg"
   xmlns:svg="http://www.w3.org/2000/svg"
   xmlns:rdf="http://www.w3.org/1999/02/22-rdf-syntax-ns#"
   xmlns:cc="http://creativecommons.org/ns#"
   xmlns:dc="http://purl.org/dc/elements/1.1/">
  <metadata
     id="metadata42">
    <rdf:RDF>
      <cc:Work
         rdf:about="">
        <dc:format>image/svg+xml</dc:format>
        <dc:type
           rdf:resource="http://purl.org/dc/dcmitype/StillImage" />
      </cc:Work>
    </rdf:RDF>
  </metadata>
  <defs
     id="defs40" />
  <sodipodi:namedview
     pagecolor="#ffffff"
     bordercolor="#666666"
     borderopacity="1"
     objecttolerance="10"
     gridtolerance="10"
     guidetolerance="10"
     inkscape:pageopacity="0"
     inkscape:pageshadow="2"
     inkscape:window-width="1678"
     inkscape:window-height="995"
     id="namedview38"
     showgrid="false"
     fit-margin-top="0"
     fit-margin-left="0"
     fit-margin-right="0"
     fit-margin-bottom="0"
     inkscape:zoom="0.2138276"
     inkscape:cx="266.56989"
     inkscape:cy="811.40134"
     inkscape:window-x="486"
     inkscape:window-y="1106"
     inkscape:window-maximized="0"
     inkscape:current-layer="svg36"
     inkscape:pagecheckerboard="0"
     inkscape:snap-page="true" />
  <g
     id="g848"
     transform="matrix(1.6741678,0,0,1.6741678,-98.04969,0.94185762)">
    <path
       d="m 79.797436,18.8 c -0.5,-1.6 -1.7,-2.9 -3.2,-3.7 l -30.5,-14.6 c -0.8,-0.4 -1.7,-0.5 -2.5,-0.5 -0.8,0 -1.7,0 -2.5,0.2 l -30.5,14.7 c -1.5000002,0.7 -2.6000002,2 -3.0000002,3.7 L 0.09743584,51.5 c -0.3,1.7 0.1,3.4 1.09999996,4.8 L 22.297436,82.4 c 1.2,1.2 2.9,2 4.6,2.1 h 33.6 c 1.8,0.2 3.5,-0.6 4.6,-2.1 l 21.1,-26.1 c 1,-1.4 1.4,-3.1 1.2,-4.8 z"
       id="path10349"
       style="fill:#326de6" />
    <path
       d="m 75.097436,50.2 v 0 c -0.1,0 -0.2,0 -0.2,-0.1 0,-0.1 -0.2,-0.1 -0.4,-0.1 -0.4,-0.1 -0.8,-0.1 -1.2,-0.1 -0.2,0 -0.4,0 -0.6,-0.1 h -0.1 c -1.1,-0.1 -2.3,-0.3 -3.4,-0.6 -0.3,-0.1 -0.6,-0.4 -0.7,-0.7 0.1,0 0,0 0,0 v 0 l -0.8,-0.2 c 0.4,-2.9 0.2,-5.9 -0.4,-8.8 -0.7,-2.9 -1.9,-5.7 -3.5,-8.2 l 0.6,-0.6 v 0 -0.1 c 0,-0.3 0.1,-0.7 0.3,-0.9 0.9,-0.8 1.8,-1.4 2.8,-2 v 0 c 0.2,-0.1 0.4,-0.2 0.6,-0.3 0.4,-0.2 0.7,-0.4 1.1,-0.6 0.1,-0.1 0.2,-0.1 0.3,-0.2 0.1,-0.1 0,-0.1 0,-0.2 v 0 c 0.9,-0.7 1.1,-1.9 0.4,-2.8 -0.3,-0.4 -0.9,-0.7 -1.4,-0.7 -0.5,0 -1,0.2 -1.4,0.5 v 0 l -0.1,0.1 c -0.1,0.1 -0.2,0.2 -0.3,0.2 -0.3,0.3 -0.6,0.6 -0.8,0.9 -0.1,0.2 -0.3,0.3 -0.4,0.4 v 0 c -0.7,0.8 -1.6,1.6 -2.5,2.2 -0.2,0.1 -0.4,0.2 -0.6,0.2 -0.1,0 -0.3,0 -0.4,-0.1 h -0.1 l -0.8,0.5 c -0.8,-0.8 -1.7,-1.6 -2.5,-2.4 -3.7,-2.9 -8.3,-4.7 -13,-5.2 l -0.1,-0.8 v 0 0.1 c -0.3,-0.2 -0.4,-0.5 -0.5,-0.8 0,-1.1 0,-2.2 0.2,-3.4 v -0.1 c 0,-0.2 0.1,-0.4 0.1,-0.6 0.1,-0.4 0.1,-0.8 0.2,-1.2 v -0.6 0 c 0.1,-1 -0.7,-2 -1.7,-2.1 -0.6,-0.1 -1.2,0.2 -1.7,0.7 -0.4,0.4 -0.6,0.9 -0.6,1.4 v 0 0.5 c 0,0.4 0.1,0.8 0.2,1.2 0.1,0.2 0.1,0.4 0.1,0.6 v 0.1 c 0.2,1.1 0.2,2.2 0.2,3.4 -0.1,0.3 -0.2,0.6 -0.5,0.8 v 0.2 0 l -0.1,0.8 c -1.1,0.1 -2.2,0.3 -3.4,0.5 -4.7,1 -9,3.5 -12.3,7 l -0.6,-0.4 h -0.1 c -0.1,0 -0.2,0.1 -0.4,0.1 -0.2,0 -0.4,-0.1 -0.6,-0.2 -0.9,-0.7 -1.8,-1.5 -2.5,-2.3 v 0 c -0.1,-0.2 -0.3,-0.3 -0.4,-0.4 -0.3,-0.3 -0.5,-0.6 -0.8,-0.9 -0.1,-0.1 -0.2,-0.1 -0.3,-0.2 -0.1,-0.1 -0.1,-0.1 -0.1,-0.1 v 0 c -0.4,-0.3 -0.9,-0.5 -1.4,-0.5 -0.6,0 -1.1,0.2 -1.4,0.7 -0.6,0.9 -0.4,2.1 0.4,2.8 v 0 c 0.1,0 0.1,0.1 0.1,0.1 0,0 0.2,0.2 0.3,0.2 0.3,0.2 0.7,0.4 1.1,0.6 0.2,0.1 0.4,0.2 0.6,0.3 v 0 c 1,0.6 2,1.2 2.8,2 0.2,0.2 0.4,0.6 0.3,0.9 v -0.1 0 l 0.6,0.6 c -0.1,0.2 -0.2,0.3 -0.3,0.5 -3.1,4.9 -4.4,10.7 -3.5,16.4 l -0.8,0.2 v 0 c 0,0.1 -0.1,0.1 -0.1,0.1 -0.1,0.3 -0.4,0.5 -0.7,0.7 -1.1,0.3 -2.2,0.5 -3.4,0.6 v 0 c -0.2,0 -0.4,0 -0.6,0.1 -0.4,0 -0.8,0.1 -1.2,0.1 -0.1,0 -0.2,0.1 -0.4,0.1 -0.1,0 -0.1,0 -0.2,0.1 v 0 c -1.1,0.2 -1.8,1.2 -1.6,2.3 0,0 0,0 0,0 0.2,0.9 1.1,1.5 2,1.4 0.2,0 0.3,0 0.5,-0.1 v 0 c 0.1,0 0.1,0 0.1,-0.1 0,-0.1 0.3,0 0.4,0 0.4,-0.1 0.8,-0.3 1.1,-0.4 0.2,-0.1 0.4,-0.2 0.6,-0.2 h 0.1 c 1.1,-0.4 2.1,-0.7 3.3,-0.9 h 0.1 c 0.3,0 0.6,0.1 0.8,0.3 0.1,0 0.1,0.1 0.1,0.1 v 0 l 0.9,-0.1 c 1.5,4.6 4.3,8.7 8.2,11.7 0.9,0.7 1.7,1.3 2.7,1.8 l -0.5,0.7 v 0 c 0,0.1 0.1,0.1 0.1,0.1 0.2,0.3 0.2,0.7 0.1,1 -0.4,1 -1,2 -1.6,2.9 v 0.1 c -0.1,0.2 -0.2,0.3 -0.4,0.5 -0.2,0.2 -0.4,0.6 -0.7,1 -0.1,0.1 -0.1,0.2 -0.2,0.3 0,0 0,0.1 -0.1,0.1 v 0 c -0.5,1 -0.1,2.2 0.8,2.7 0.2,0.1 0.5,0.2 0.7,0.2 0.8,0 1.5,-0.5 1.9,-1.2 v 0 c 0,0 0,-0.1 0.1,-0.1 0,-0.1 0.1,-0.2 0.2,-0.3 0.1,-0.4 0.3,-0.7 0.4,-1.1 l 0.2,-0.6 v 0 c 0.3,-1.1 0.8,-2.1 1.3,-3.1 0.2,-0.3 0.5,-0.5 0.8,-0.6 0.1,0 0.1,0 0.1,-0.1 v 0 l 0.4,-0.8 c 2.8,1.1 5.7,1.6 8.7,1.6 1.8,0 3.6,-0.2 5.4,-0.7 1.1,-0.2 2.2,-0.6 3.2,-0.9 l 0.4,0.7 v 0 c 0.1,0 0.1,0 0.1,0.1 0.3,0.1 0.6,0.3 0.8,0.6 0.5,1 1,2 1.3,3.1 v 0.1 l 0.2,0.6 c 0.1,0.4 0.2,0.8 0.4,1.1 0.1,0.1 0.1,0.2 0.2,0.3 0,0 0,0.1 0.1,0.1 v 0 c 0.4,0.7 1.1,1.2 1.9,1.2 0.3,0 0.5,-0.1 0.8,-0.2 0.4,-0.2 0.8,-0.6 0.9,-1.1 0.1,-0.5 0.1,-1 -0.1,-1.5 v 0 c 0,-0.1 -0.1,-0.1 -0.1,-0.1 0,-0.1 -0.1,-0.2 -0.2,-0.3 -0.2,-0.4 -0.4,-0.7 -0.7,-1 -0.1,-0.2 -0.2,-0.3 -0.4,-0.5 v -0.2 c -0.7,-0.9 -1.2,-1.9 -1.6,-2.9 -0.1,-0.3 -0.1,-0.7 0.1,-1 0,-0.1 0.1,-0.1 0.1,-0.1 v 0 l -0.3,-0.8 c 5.1,-3.1 9,-7.9 10.8,-13.6 l 0.8,0.1 v 0 c 0.1,0 0.1,-0.1 0.1,-0.1 0.2,-0.2 0.5,-0.3 0.8,-0.3 h 0.1 c 1.1,0.2 2.2,0.5 3.2,0.9 h 0.1 c 0.2,0.1 0.4,0.2 0.6,0.2 0.4,0.2 0.7,0.4 1.1,0.5 0.1,0 0.2,0.1 0.4,0.1 0.1,0 0.1,0 0.2,0.1 v 0 c 0.2,0.1 0.3,0.1 0.5,0.1 0.9,0 1.7,-0.6 2,-1.4 -0.1,-1.1 -0.9,-1.9 -1.8,-2.1 z m -28.9,-3.1 -2.7,1.3 -2.7,-1.3 -0.7,-2.9 1.9,-2.4 h 3 l 1.9,2.4 z m 16.3,-6.5 c 0.5,2.1 0.6,4.2 0.4,6.3 l -9.5,-2.7 v 0 c -0.9,-0.2 -1.4,-1.1 -1.2,-2 0.1,-0.3 0.2,-0.5 0.4,-0.7 l 7.5,-6.8 c 1.1,1.8 1.9,3.8 2.4,5.9 z m -5.4,-9.6 -8.2,5.8 c -0.7,0.4 -1.7,0.3 -2.2,-0.4 -0.2,-0.2 -0.3,-0.4 -0.3,-0.7 l -0.6,-10.1 c 4.4,0.5 8.3,2.4 11.3,5.4 z m -18.1,-5.1 2,-0.4 -0.5,10 v 0 c 0,0.9 -0.8,1.6 -1.7,1.6 -0.3,0 -0.5,-0.1 -0.8,-0.2 l -8.3,-5.9 c 2.6,-2.5 5.8,-4.3 9.3,-5.1 z m -12.2,8.8 7.4,6.6 v 0 c 0.7,0.6 0.8,1.6 0.2,2.3 -0.2,0.3 -0.4,0.4 -0.8,0.5 l -9.7,2.8 c -0.3,-4.2 0.7,-8.5 2.9,-12.2 z m -1.7,16.9 9.9,-1.7 c 0.8,0 1.6,0.5 1.7,1.3 0.1,0.3 0.1,0.7 -0.1,1 v 0 l -3.8,9.2 c -3.5,-2.3 -6.3,-5.8 -7.7,-9.8 z m 22.7,12.4 c -1.4,0.3 -2.8,0.5 -4.3,0.5 -2.1,0 -4.3,-0.4 -6.3,-1 l 4.9,-8.9 c 0.5,-0.6 1.3,-0.8 2,-0.4 0.3,0.2 0.5,0.4 0.8,0.7 v 0 l 4.8,8.7 c -0.6,0.1 -1.2,0.2 -1.9,0.4 z m 12.2,-8.7 c -1.5,2.4 -3.6,4.5 -6,6 l -3.9,-9.4 c -0.2,-0.8 0.2,-1.6 0.9,-1.9 0.3,-0.1 0.6,-0.2 0.9,-0.2 l 10,1.7 c -0.5,1.4 -1.1,2.7 -1.9,3.8 z"
       id="path10351"
       style="fill:#ffffff" />
  </g>
  <g
     fill="none"
     fill-rule="evenodd"
     id="g34"
     transform="translate(-31.25174,-0.02)">
    <path
       d="m 147.488,45.732 h 22.866 v 23.375 h 11.561 c 5.34,0 10.831,-0.951 15.887,-2.664 2.485,-0.843 5.273,-2.015 7.724,-3.49 -3.228,-4.214 -4.876,-9.535 -5.36,-14.78 -0.66,-7.135 0.78,-16.421 5.608,-22.005 l 2.404,-2.78 2.864,2.303 c 7.211,5.793 13.276,13.889 14.345,23.118 8.683,-2.554 18.878,-1.95 26.531,2.467 l 3.14,1.812 -1.652,3.226 C 246.933,68.946 233.4,72.86 220.17,72.167 c -19.797,49.309 -62.898,72.653 -115.157,72.653 -27,0 -51.77,-10.093 -65.876,-34.047 l -0.231,-0.39 -2.055,-4.182 C 32.083,95.657 30.499,84.106 31.573,72.564 l 0.323,-3.457 H 51.45 V 45.732 H 74.315 V 22.866 h 45.733 V 0 h 27.44 v 45.732"
       fill="#364548"
       id="path2"
       sodipodi:nodetypes="cccscccccccccccsccccccccccccc" />
    <path
       d="m 221.57,54.38 c 1.533,-11.916 -7.384,-21.275 -12.914,-25.719 -6.373,7.368 -7.363,26.678 2.635,34.808 -5.58,4.956 -17.337,9.448 -29.376,9.448 H 35.37 c -1.17,12.567 1.036,24.14 6.075,34.045 l 1.667,3.05 a 56.536,56.536 0 0 0 3.455,5.184 c 6.025,0.387 11.58,0.52 16.662,0.408 h 0.002 c 9.987,-0.22 18.136,-1.4 24.312,-3.54 a 1.761,1.761 0 0 1 1.153,3.326 c -0.822,0.286 -1.678,0.552 -2.562,0.805 h -0.003 c -4.863,1.389 -10.078,2.323 -16.806,2.738 0.4,0.007 -0.416,0.06 -0.418,0.06 -0.229,0.015 -0.517,0.048 -0.747,0.06 -2.648,0.149 -5.506,0.18 -8.428,0.18 -3.196,0 -6.343,-0.06 -9.862,-0.24 l -0.09,0.06 c 12.21,13.724 31.302,21.955 55.234,21.955 50.648,0 93.608,-22.452 112.632,-72.857 13.496,1.385 26.467,-2.057 32.367,-13.575 -9.398,-5.423 -21.484,-3.694 -28.443,-0.196"
       fill="#22a0c8"
       id="path4" />
    <path
       d="m 221.57,54.38 c 1.533,-11.916 -7.384,-21.275 -12.914,-25.719 -6.373,7.368 -7.363,26.678 2.635,34.808 -5.58,4.956 -17.337,9.448 -29.376,9.448 H 44.048 c -0.598,19.246 6.544,33.855 19.18,42.687 h 0.003 c 9.987,-0.22 18.136,-1.4 24.312,-3.54 a 1.761,1.761 0 0 1 1.153,3.326 c -0.822,0.286 -1.678,0.552 -2.562,0.805 h -0.003 c -4.863,1.389 -10.526,2.443 -17.254,2.858 -0.002,0 -0.163,-0.155 -0.165,-0.155 17.237,8.842 42.23,8.81 70.885,-2.197 32.13,-12.344 62.029,-35.86 82.89,-62.757 -0.314,0.142 -0.62,0.287 -0.917,0.436"
       fill="#37b1d9"
       id="path6" />
    <path
       d="m 35.645,88.186 c 0.91,6.732 2.88,13.035 5.8,18.776 l 1.667,3.05 a 56.432,56.432 0 0 0 3.455,5.184 c 6.026,0.387 11.581,0.52 16.664,0.408 9.987,-0.22 18.136,-1.4 24.312,-3.54 a 1.761,1.761 0 0 1 1.153,3.326 c -0.822,0.286 -1.678,0.552 -2.562,0.805 h -0.003 c -4.863,1.389 -10.496,2.383 -17.224,2.799 -0.231,0.014 -0.634,0.017 -0.867,0.03 -2.646,0.148 -5.475,0.239 -8.398,0.239 -3.195,0 -6.463,-0.061 -9.98,-0.24 12.21,13.724 31.42,21.985 55.352,21.985 43.36,0 81.084,-16.458 102.979,-52.822 H 35.645"
       fill="#1b81a5"
       id="path8" />
    <path
       d="m 45.367,88.186 c 2.592,11.82 8.821,21.099 17.864,27.418 9.987,-0.22 18.136,-1.4 24.312,-3.54 a 1.761,1.761 0 0 1 1.153,3.326 c -0.822,0.286 -1.678,0.552 -2.562,0.805 h -0.003 c -4.863,1.389 -10.615,2.383 -17.344,2.799 17.236,8.84 42.157,8.713 70.81,-2.293 17.334,-6.66 34.017,-16.574 48.984,-28.515 H 45.367"
       fill="#1d91b4"
       id="path10" />
    <path
       d="M 55.26,49.543 H 75.078 V 69.361 H 55.26 Z m 1.651,1.652 h 1.564 V 67.71 h -1.564 z m 2.94,0 h 1.627 V 67.71 H 59.852 V 51.195 Z m 3.002,0 H 64.48 V 67.71 h -1.627 z m 3.004,0 h 1.626 V 67.71 h -1.626 z m 3.003,0 h 1.626 V 67.71 H 68.86 Z m 3.002,0 h 1.565 V 67.71 H 71.862 Z M 78.126,26.677 H 97.945 V 46.494 H 78.125 V 26.677 Z m 1.652,1.652 h 1.563 v 16.514 h -1.563 z m 2.94,0 h 1.626 V 44.843 H 82.719 V 28.329 Z m 3.002,0 h 1.626 V 44.843 H 85.72 Z m 3.003,0 h 1.626 v 16.514 h -1.626 z m 3.003,0 h 1.627 v 16.514 h -1.627 z m 3.002,0 h 1.566 v 16.514 h -1.566 z"
       fill="#23a3c2"
       id="path12" />
    <path
       d="M 78.126,49.543 H 97.945 V 69.361 H 78.125 V 49.543 Z m 1.652,1.652 h 1.563 V 67.71 h -1.563 z m 2.94,0 h 1.626 V 67.71 H 82.719 V 51.195 Z m 3.002,0 h 1.626 V 67.71 H 85.72 Z m 3.003,0 h 1.626 V 67.71 h -1.626 z m 3.003,0 h 1.627 V 67.71 h -1.627 z m 3.002,0 h 1.566 V 67.71 h -1.566 z"
       fill="#34bbde"
       id="path14" />
    <path
       d="m 100.993,49.543 h 19.818 v 19.818 h -19.818 z m 1.651,1.652 h 1.563 V 67.71 h -1.563 z m 2.94,0 h 1.626 V 67.71 h -1.626 z m 3.003,0 h 1.626 V 67.71 h -1.626 z m 3.003,0 h 1.626 V 67.71 h -1.626 z m 3.002,0 h 1.628 V 67.71 h -1.628 z m 3.003,0 h 1.564 V 67.71 h -1.564 z"
       fill="#23a3c2"
       id="path16" />
    <path
       d="m 100.993,26.677 h 19.818 v 19.817 h -19.818 z m 1.651,1.652 h 1.563 v 16.514 h -1.563 z m 2.94,0 h 1.626 v 16.514 h -1.626 z m 3.003,0 h 1.626 v 16.514 h -1.626 z m 3.003,0 h 1.626 v 16.514 h -1.626 z m 3.002,0 h 1.628 v 16.514 h -1.628 z m 3.003,0 h 1.564 v 16.514 h -1.564 z m 6.264,21.214 h 19.818 v 19.818 h -19.818 z m 1.652,1.652 h 1.563 V 67.71 h -1.563 z m 2.94,0 h 1.626 V 67.71 h -1.626 z m 3.002,0 h 1.626 V 67.71 h -1.626 z m 3.003,0 h 1.627 V 67.71 h -1.627 z m 3.003,0 h 1.627 V 67.71 h -1.627 z m 3.003,0 h 1.564 V 67.71 h -1.564 z"
       fill="#34bbde"
       id="path18" />
    <path
       d="m 123.859,26.677 h 19.818 v 19.817 h -19.818 z m 1.652,1.652 h 1.563 v 16.514 h -1.563 z m 2.94,0 h 1.626 v 16.514 h -1.626 z m 3.002,0 h 1.626 v 16.514 h -1.626 z m 3.003,0 h 1.627 v 16.514 h -1.627 z m 3.003,0 h 1.627 v 16.514 h -1.627 z m 3.003,0 h 1.564 v 16.514 h -1.564 z"
       fill="#23a3c2"
       id="path20" />
    <path
       d="m 123.859,3.81 h 19.818 v 19.82 h -19.818 z m 1.652,1.651 h 1.563 v 16.516 h -1.563 V 5.46 Z m 2.94,0 h 1.626 v 16.516 h -1.626 V 5.46 Z m 3.002,0 h 1.626 v 16.516 h -1.626 V 5.46 Z m 3.003,0 h 1.627 v 16.516 h -1.627 V 5.46 Z m 3.003,0 h 1.627 v 16.516 h -1.627 V 5.46 Z m 3.003,0 h 1.564 v 16.516 h -1.564 V 5.46 Z"
       fill="#34bbde"
       id="path22" />
    <path
       d="m 146.725,49.543 h 19.818 v 19.818 h -19.818 z m 1.65,1.652 h 1.565 V 67.71 h -1.564 V 51.195 Z m 2.94,0 h 1.627 V 67.71 h -1.626 V 51.195 Z m 3.004,0 h 1.627 V 67.71 h -1.627 z m 3.002,0 h 1.627 V 67.71 h -1.627 z m 3.004,0 h 1.626 V 67.71 h -1.626 z m 3.002,0 h 1.564 V 67.71 h -1.564 z"
       fill="#23a3c2"
       id="path24" />
    <path
       d="m 96.704,101.492 a 5.468,5.468 0 1 1 -0.002,10.935 5.468,5.468 0 0 1 0.002,-10.935"
       fill="#d3ecec"
       id="path26" />
    <path
       d="m 96.704,103.043 c 0.5,0 0.977,0.094 1.417,0.265 -1.410234,0.81867 -0.832635,2.97563 0.798,2.98 0.605,0 1.13,-0.335 1.402,-0.831 1.48477,3.57674 -2.568909,6.90596 -5.788863,4.75695 -3.219954,-2.14901 -1.700814,-7.16979 2.171863,-7.17095 M 33.35367,87.9873 254.327,90.162 c -5.537,-1.404 -17.52,-3.302 -15.544,-10.56 -10.07,11.652 -34.353,8.175 -40.482,2.43 -6.824,9.898 -46.554,6.135 -49.325,-1.576 -8.556,10.041 -35.067,10.041 -43.623,0 -2.773,7.711 -42.502,11.474 -49.327,1.575 -6.128,5.746 -12.048899,9.223 -22.118899,-2.428"
       fill="#364548"
       id="path28"
       sodipodi:nodetypes="ccccsccccccccc" />
    <path
       d="m 111.237,140.89 c -13.54,-6.425 -20.971,-15.16 -25.106,-24.694 -5.03,1.435 -11.075,2.353 -18.1,2.747 -2.646,0.148 -5.43,0.224 -8.35,0.224 -3.368,0 -6.917,-0.1 -10.643,-0.297 12.417,12.41 27.692,21.964 55.976,22.138 2.088,0 4.16,-0.04 6.223,-0.118"
       fill="#bdd9d7"
       id="path30" />
    <path
       d="m 91.16,124.994 c -1.873,-2.543 -3.69,-5.739 -5.026,-8.8 -5.03,1.437 -11.077,2.355 -18.103,2.75 4.826,2.619 11.727,5.046 23.13,6.05"
       fill="#d3ecec"
       id="path32" />
  </g>
</svg>
