<?xml version="1.0" encoding="UTF-8" standalone="no"?>
<svg
   xmlns:dc="http://purl.org/dc/elements/1.1/"
   xmlns:cc="http://creativecommons.org/ns#"
   xmlns:rdf="http://www.w3.org/1999/02/22-rdf-syntax-ns#"
   xmlns:svg="http://www.w3.org/2000/svg"
   xmlns="http://www.w3.org/2000/svg"
   xmlns:sodipodi="http://sodipodi.sourceforge.net/DTD/sodipodi-0.dtd"
   xmlns:inkscape="http://www.inkscape.org/namespaces/inkscape"
   viewBox="8.5 1 154.49711 92.928"
   width="1040"
   height="640"
   version="1.1"
   id="svg9"
   sodipodi:docname="monitoring.svg"
   inkscape:version="1.0.2 (394de47547, 2021-03-26)"
   inkscape:export-filename="/home/tcarreira/projects/tiago.carreira.pw/assets/images/sections/skills/monitoring.png"
   inkscape:export-xdpi="15"
   inkscape:export-ydpi="15">
  <metadata
     id="metadata15">
    <rdf:RDF>
      <cc:Work
         rdf:about="">
        <dc:format>image/svg+xml</dc:format>
        <dc:type
           rdf:resource="http://purl.org/dc/dcmitype/StillImage" />
        <dc:title></dc:title>
      </cc:Work>
    </rdf:RDF>
  </metadata>
  <defs
     id="defs13" />
  <sodipodi:namedview
     pagecolor="#ffffff"
     bordercolor="#666666"
     borderopacity="1"
     objecttolerance="10"
     gridtolerance="10"
     guidetolerance="10"
     inkscape:pageopacity="0"
     inkscape:pageshadow="2"
     inkscape:window-width="1344"
     inkscape:window-height="923"
     id="namedview11"
     showgrid="true"
     inkscape:zoom="0.40446508"
     inkscape:cx="248.81201"
     inkscape:cy="480.51281"
     inkscape:window-x="0"
     inkscape:window-y="0"
     inkscape:window-maximized="0"
     inkscape:current-layer="svg9"
     inkscape:snap-bbox="true"
     inkscape:snap-object-midpoints="false"
     inkscape:snap-center="true"
     inkscape:snap-smooth-nodes="false"
     inkscape:snap-intersection-paths="true"
     inkscape:bbox-nodes="true"
     inkscape:snap-midpoints="true"
     inkscape:snap-bbox-midpoints="false"
     inkscape:snap-bbox-edge-midpoints="false"
     inkscape:object-nodes="false"
     inkscape:snap-others="false"
     inkscape:snap-nodes="false"
     inkscape:snap-grids="true"
     inkscape:snap-page="true"
     inkscape:snap-to-guides="true"
     fit-margin-top="0"
     fit-margin-left="0"
     fit-margin-right="0"
     fit-margin-bottom="0">
    <inkscape:grid
       type="xygrid"
       id="grid156"
       originx="-47.537572"
       originy="-34.847999" />
  </sodipodi:namedview>
  <linearGradient
     id="a"
     gradientUnits="userSpaceOnUse"
     x1="175.5"
     x2="175.5"
     y1="108.9"
     y2="359.37"
     gradientTransform="matrix(0.26191494,0,0,0.26191494,6.2737713,-0.33543328)">
    <stop
       offset="0"
       stop-color="#f05a28"
       id="stop2" />
    <stop
       offset="1"
       stop-color="#fbca0a"
       id="stop4" />
  </linearGradient>
  <path
     d="m 95.848698,41.885263 c -0.15716,-1.597679 -0.41908,-3.43109 -0.9429,-5.474028 -0.52383,-2.016754 -1.30957,-4.243026 -2.462,-6.547881 -1.15243,-2.304848 -2.64534,-4.688277 -4.58351,-7.019319 -0.75956,-0.916706 -1.59769,-1.807217 -2.4882,-2.671533 1.33577,-5.316871 -1.62387,-9.926572 -1.62387,-9.926572 -5.10735,-0.3142983 -8.35508,1.597678 -9.5599,2.461996 -0.20952,-0.07862 -0.39287,-0.183334 -0.6024,-0.26191 -0.86432,-0.340491 -1.75483,-0.680982 -2.69773,-0.969083 -0.91669,-0.288113 -1.85959,-0.550029 -2.82868,-0.785752 -0.96908,-0.235723 -1.93817,-0.419066 -2.93344,-0.576215 -0.18334,-0.02617 -0.34049,-0.05236 -0.52383,-0.07862 C 62.375948,2.9122587 55.985228,-0.07357128 55.985228,-0.07357128 48.83495,4.4575567 47.49918,10.795901 47.49918,10.795901 c 0,0 -0.02617,0.130954 -0.07862,0.366678 -0.392872,0.104768 -0.785743,0.235731 -1.178614,0.340491 -0.550019,0.157148 -1.100048,0.366686 -1.623873,0.576214 -0.55002,0.209537 -1.073853,0.419066 -1.623874,0.654788 -1.073853,0.471445 -2.147706,0.995279 -3.195367,1.571492 -1.021464,0.576215 -2.016742,1.204807 -2.985828,1.859596 l -0.261916,-0.104766 c -9.900379,-3.77157 -18.674533,0.759556 -18.674533,0.759556 -0.811938,10.528983 3.954913,17.155429 4.897813,18.360238 -0.235723,0.654788 -0.44526,1.309576 -0.654788,1.964355 -0.733363,2.383439 -1.283382,4.819248 -1.623873,7.359828 -0.05236,0.366677 -0.104768,0.733362 -0.130963,1.100038 -9.167017,4.531128 -11.8647437,13.776728 -11.8647437,13.776728 7.6217267,8.774144 16.5268347,9.324174 16.5268347,9.324174 l 0.02617,-0.0263 c 1.126233,2.01674 2.435802,3.92871 3.902526,5.73592 0.628602,0.75956 1.257197,1.46673 1.938171,2.1739 -2.776294,7.96222 0.392878,14.56247 0.392878,14.56247 8.486045,0.31429 14.064832,-3.71919 15.243446,-4.63589 0.838131,0.28811 1.702447,0.55002 2.566764,0.75955 2.61916,0.68098 5.290688,1.07385 7.962228,1.17862 0.65479,0.0263 1.33576,0.0524 1.99056,0.0263 h 0.94289 l 0.41906,-0.0263 v 0.0263 c 4.0073,5.70976 11.02661,6.52169 11.02661,6.52169 5.00259,-5.26448 5.29069,-10.5028 5.29069,-11.62903 v -0.0786 -0.15715 -0.23573 c 1.04766,-0.73336 2.04293,-1.51909 2.98583,-2.38341 1.99055,-1.80722 3.74538,-3.87634 5.21211,-6.10262 l 0.39286,-0.62859 c 5.65736,0.31428 9.66467,-3.50967 9.66467,-3.50967 -0.94289,-5.893072 -4.29541,-8.774139 -5.00258,-9.324168 -0.70717,-0.55002 -0.0262,-0.02617 -0.0787,-0.05236 -0.0524,-0.02617 -0.0524,-0.05236 -0.0524,-0.05236 -0.0262,-0.02617 -0.0787,-0.05236 -0.13096,-0.07854 0.0262,-0.366686 0.0524,-0.707177 0.0785,-1.073854 0.0524,-0.628595 0.0524,-1.283382 0.0524,-1.911975 v -0.838131 -0.157149 l -0.0262,-0.392871 -0.0262,-0.523833 c 0,-0.183344 -0.0261,-0.340492 -0.0524,-0.497642 -0.0262,-0.157148 -0.0262,-0.340491 -0.0524,-0.497639 l -0.0524,-0.497631 -0.0786,-0.497639 c -0.10476,-0.654788 -0.20953,-1.283383 -0.36668,-1.938171 -0.6024,-2.540578 -1.59768,-4.950192 -2.88106,-7.124086 -1.30958,-2.173892 -2.93345,-4.085877 -4.79304,-5.70975 -1.83341,-1.623882 -3.90254,-2.933458 -6.05024,-3.902543 -2.17391,-0.969086 -4.42637,-1.59768 -6.67883,-1.885782 -1.12624,-0.157149 -2.25247,-0.209536 -3.3787,-0.183342 h -0.83813 l -0.41906,0.02617 c -0.15716,0 -0.3143,0.02618 -0.44526,0.02618 -0.57621,0.05236 -1.15243,0.130961 -1.70245,0.235722 -2.25247,0.419065 -4.37397,1.231002 -6.23357,2.357235 -1.8596,1.126235 -3.48347,2.514393 -4.793046,4.085886 -1.309577,1.571485 -2.33105,3.326321 -3.038218,5.133529 -0.707177,1.807217 -1.100048,3.693005 -1.204807,5.500212 -0.02618,0.445261 -0.02618,0.916706 -0.02618,1.361965 v 0.340482 l 0.02618,0.366687 c 0.02617,0.209528 0.02617,0.445251 0.05236,0.654789 0.07854,0.916695 0.261918,1.807206 0.49764,2.645337 0.49764,1.702447 1.283382,3.247746 2.252476,4.557323 0.969084,1.309575 2.147698,2.383417 3.378705,3.247747 1.231,0.83812 2.56677,1.440529 3.87635,1.833405 1.30957,0.392866 2.61914,0.550021 3.85015,0.550021 h 0.68098 c 0.0786,0 0.15714,0 0.23572,-0.02615 0.13095,0 0.26191,-0.02615 0.39287,-0.02615 0.0262,0 0.0786,0 0.10476,-0.02615 l 0.13097,-0.02615 c 0.0786,0 0.15714,-0.02615 0.23572,-0.02615 0.15714,-0.02615 0.2881,-0.0524 0.44524,-0.07855 0.15716,-0.02615 0.28811,-0.05229 0.41907,-0.104766 0.28811,-0.0524 0.55002,-0.157145 0.81194,-0.235722 0.52383,-0.183344 1.04766,-0.392876 1.49292,-0.628598 0.47144,-0.235722 0.8905,-0.523832 1.30956,-0.785742 0.10478,-0.07865 0.23573,-0.157155 0.3405,-0.261911 0.41906,-0.340498 0.49763,-0.969086 0.15714,-1.388151 -0.2881,-0.366687 -0.81193,-0.471454 -1.23099,-0.235722 l -0.3143,0.157145 c -0.36668,0.183343 -0.73337,0.340488 -1.12623,0.471443 -0.39288,0.130955 -0.81195,0.235722 -1.23101,0.314299 -0.20953,0.02615 -0.41906,0.0524 -0.65478,0.07865 -0.10477,0 -0.20954,0.02615 -0.3405,0.02615 h -0.62858 c -0.13097,0 -0.26192,0 -0.39289,-0.02615 h -0.15704 c -0.0524,0 -0.13095,0 -0.18333,-0.02615 -0.13097,-0.02615 -0.23573,-0.02615 -0.36669,-0.0524 -0.96909,-0.130956 -1.93817,-0.419066 -2.85488,-0.838121 -0.94289,-0.419065 -1.8334,-0.995281 -2.64534,-1.728642 -0.81193,-0.733362 -1.5191,-1.597679 -2.06912,-2.592959 -0.55003,-0.995279 -0.942906,-2.095319 -1.12624,-3.247746 -0.07862,-0.576214 -0.130963,-1.178613 -0.104768,-1.754827 0,-0.157149 0.02618,-0.314297 0.02618,-0.471446 v -0.209536 c 0,-0.07862 0.02617,-0.157149 0.02617,-0.235723 0.02618,-0.314297 0.07862,-0.628594 0.130963,-0.942892 0.445255,-2.514383 1.702445,-4.976387 3.640615,-6.835982 0.49764,-0.471445 1.02147,-0.890512 1.57149,-1.283383 0.55002,-0.392871 1.15243,-0.733362 1.78102,-1.021465 0.62859,-0.288111 1.2572,-0.523834 1.93817,-0.707176 0.65479,-0.183334 1.33577,-0.288103 2.04293,-0.366677 0.3405,-0.02618 0.68099,-0.05235 1.04767,-0.05235 h 0.81194 l 0.2881,0.02617 c 0.75955,0.05236 1.49292,0.157149 2.22628,0.340491 1.46673,0.314298 2.90725,0.864318 4.24302,1.59768 2.67154,1.49292 4.95019,3.797766 6.33834,6.574067 0.70717,1.38815 1.20481,2.881061 1.44053,4.42636 0.0524,0.392879 0.10476,0.785751 0.13096,1.178621 l 0.0262,0.288104 0.0262,0.28811 v 1.126234 c 0,0.183343 -0.0262,0.49764 -0.0262,0.680974 -0.0262,0.419065 -0.0786,0.864325 -0.13097,1.283391 -0.0524,0.419056 -0.13095,0.838123 -0.20953,1.257187 -0.0785,0.419065 -0.18333,0.838131 -0.28811,1.231002 -0.20952,0.811945 -0.47144,1.623877 -0.78574,2.435818 -0.62859,1.571485 -1.46672,3.090581 -2.462,4.478737 -2.01674,2.7763 -4.76686,5.02876 -7.90982,6.46929 -1.57149,0.70718 -3.22156,1.231 -4.92401,1.49292 -0.83813,0.15715 -1.70244,0.23572 -2.56676,0.26192 h -1.30957 c -0.47145,0 -0.91671,-0.0263 -1.38816,-0.0786 -1.8334,-0.13096 -3.64062,-0.47145 -5.421639,-0.96909 -1.754827,-0.49764 -3.457284,-1.20481 -5.081156,-2.04294 -3.221553,-1.72864 -6.128817,-4.08587 -8.381283,-6.940734 -1.126235,-1.414341 -2.121504,-2.959647 -2.933442,-4.55732 -0.811939,-1.597786 -1.466727,-3.300233 -1.938182,-5.00268 -0.471445,-1.728644 -0.759547,-3.483471 -0.890502,-5.264493 l -0.02617,-0.340491 v -1.492988 -0.183334 -0.654788 c 0.02617,-0.864325 0.104767,-1.78102 0.209527,-2.671531 0.104767,-0.890511 0.261917,-1.807216 0.44526,-2.697727 0.183334,-0.890511 0.392872,-1.781022 0.654788,-2.671533 0.497631,-1.754828 1.126234,-3.457283 1.859596,-5.054962 1.49291,-3.195366 3.431081,-6.050242 5.762122,-8.328896 0.576214,-0.576213 1.178621,-1.100047 1.807215,-1.623872 0.628595,-0.49764 1.283383,-0.969085 1.964365,-1.414346 0.654789,-0.44525 1.361957,-0.83813 2.069125,-1.204807 0.340491,-0.183343 0.707177,-0.366685 1.073852,-0.523834 l 0.550029,-0.235722 0.55002,-0.235723 c 0.733362,-0.314296 1.49292,-0.576214 2.278661,-0.811938 0.183343,-0.05235 0.392874,-0.104756 0.576214,-0.183332 0.18335,-0.05236 0.39287,-0.104768 0.57622,-0.157159 0.39287,-0.104756 0.78574,-0.209527 1.17861,-0.288101 0.18335,-0.05235 0.39288,-0.07862 0.60241,-0.130955 0.20953,-0.05236 0.39287,-0.07862 0.60241,-0.130962 0.20952,-0.02618 0.39287,-0.07862 0.6024,-0.104756 l 0.28811,-0.05236 0.3143,-0.05236 c 0.20952,-0.02617 0.39287,-0.05236 0.6024,-0.07854 0.23572,-0.02617 0.44525,-0.05236 0.68097,-0.07862 0.18335,-0.02617 0.49765,-0.05236 0.68098,-0.07853 0.13097,-0.02617 0.28811,-0.02617 0.41907,-0.05236 l 0.28811,-0.02618 0.13095,-0.02617 h 0.15716 c 0.23572,-0.02618 0.44525,-0.02618 0.68097,-0.05235 l 0.3405,-0.02618 h 0.2619 c 0.18334,0 0.39288,-0.02617 0.57622,-0.02617 0.75955,-0.02617 1.5453,-0.02617 2.30485,0 1.51911,0.05236 3.01202,0.235724 4.45256,0.497639 2.90725,0.55002 5.63116,1.466726 8.11936,2.697728 2.48819,1.204807 4.68826,2.697727 6.62644,4.321592 0.13096,0.104768 0.23572,0.209536 0.36668,0.314305 0.10477,0.104756 0.23572,0.209529 0.34049,0.314296 0.23572,0.20953 0.44525,0.419067 0.68097,0.628594 0.23572,0.209528 0.44527,0.419066 0.65479,0.628595 0.20954,0.209537 0.41907,0.419065 0.62861,0.654788 0.81193,0.864316 1.57148,1.728641 2.25246,2.619152 1.36196,1.754828 2.462,3.535849 3.32632,5.212111 l 0.15716,0.314297 0.15714,0.314305 c 0.10473,0.209529 0.20953,0.419058 0.2881,0.628595 0.10471,0.209528 0.18335,0.39287 0.28812,0.602399 0.0785,0.209538 0.18332,0.39288 0.2619,0.602409 0.3143,0.785742 0.6286,1.545298 0.86432,2.252466 0.39288,1.152428 0.68099,2.173894 0.91671,3.064403 0.0785,0.366687 0.41905,0.602409 0.78574,0.550021 0.39288,-0.02618 0.68097,-0.340483 0.68097,-0.733353 0.0263,-0.9429 0,-2.069134 -0.13095,-3.352515 z"
     fill="url(#a)"
     id="path7"
     style="fill:url(#a);stroke-width:0.261915" />
  <circle
     style="fill:#ffffff;fill-opacity:1;fill-rule:evenodd;stroke-width:0.148555"
     id="path158"
     cx="116.26241"
     cy="48.26688"
     r="42.398254" />
  <path
     d="m 115.45992,-0.07357028 c -26.253382,0 -47.537952,21.28198028 -47.537952,47.53646528 0,26.253376 21.28457,47.536826 47.537952,47.536826 26.25337,0 47.53719,-21.28345 47.53719,-47.536826 0,-26.254854 -21.28457,-47.53646528 -47.53719,-47.53646528 z m 0,88.96953128 c -7.46934,0 -13.52557,-4.98957 -13.52557,-11.1431 h 27.05112 c 0,6.15241 -6.05584,11.1431 -13.52555,11.1431 z m 22.34006,-14.8332 H 93.117618 v -8.102555 h 44.683092 v 8.102185 h -7.3e-4 z M 137.63954,61.790263 H 93.244998 c -0.1478,-0.170094 -0.29858,-0.33796 -0.4412,-0.510652 -4.57364,-5.553724 -5.65103,-8.452767 -6.69686,-11.407533 -0.0179,-0.09731 5.54594,1.136439 9.49118,2.024056 0,0 2.03001,0.469805 4.998122,1.010922 -2.849652,-3.340254 -4.542062,-7.586704 -4.542062,-11.927479 0,-9.529047 7.308902,-17.855926 4.672062,-24.586197 2.56627,0.208713 5.31083,5.415935 5.49652,13.557482 2.72822,-3.770325 3.86986,-10.655103 3.86986,-14.876277 0,-4.370861 2.8801,-9.4480983 5.76096,-9.6215363 -2.56814,4.232328 0.66478,7.8604163 3.53931,16.8609683 1.07778,3.380749 0.94037,9.070414 1.77227,12.678439 0.27632,-7.493862 1.56466,-18.428235 6.31878,-22.203027 -2.09723,4.753758 0.3105,10.702638 1.95721,13.562325 2.65691,4.614103 4.26725,8.109609 4.26725,14.721059 0,4.432862 -1.63672,8.60614 -4.39724,11.86878 3.13897,-0.589013 5.30676,-1.120106 5.30676,-1.120106 l 10.19459,-1.988782 c 7.5e-4,-7.37e-4 -1.48073,6.091126 -7.17297,11.957558 z"
     fill="#da4e31"
     id="path145"
     style="stroke-width:0.371387" />
</svg>
