<?xml version="1.0" encoding="UTF-8" standalone="no"?>
<svg
   xmlns:dc="http://purl.org/dc/elements/1.1/"
   xmlns:cc="http://creativecommons.org/ns#"
   xmlns:rdf="http://www.w3.org/1999/02/22-rdf-syntax-ns#"
   xmlns:svg="http://www.w3.org/2000/svg"
   xmlns="http://www.w3.org/2000/svg"
   xmlns:sodipodi="http://sodipodi.sourceforge.net/DTD/sodipodi-0.dtd"
   xmlns:inkscape="http://www.inkscape.org/namespaces/inkscape"
   id="Capa_1"
   enable-background="new 0 0 512 512"
   height="537.80078"
   viewBox="0 0 517.44128 537.80078"
   width="517.44128"
   version="1.1"
   sodipodi:docname="logo.svg"
   inkscape:version="1.0.2 (394de47547, 2021-03-26)"
   inkscape:export-filename="/home/tcarreira/projects/tiago.carreira.pw/assets/images/site/favicon.png"
   inkscape:export-xdpi="8.5343018"
   inkscape:export-ydpi="8.5343018">
  <metadata
     id="metadata15">
    <rdf:RDF>
      <cc:Work
         rdf:about="">
        <dc:format>image/svg+xml</dc:format>
        <dc:type
           rdf:resource="http://purl.org/dc/dcmitype/StillImage" />
        <dc:title />
      </cc:Work>
    </rdf:RDF>
  </metadata>
  <defs
     id="defs13" />
  <sodipodi:namedview
     pagecolor="#ffffff"
     bordercolor="#666666"
     borderopacity="1"
     objecttolerance="10"
     gridtolerance="10"
     guidetolerance="10"
     inkscape:pageopacity="0"
     inkscape:pageshadow="2"
     inkscape:window-width="1920"
     inkscape:window-height="1025"
     id="namedview11"
     showgrid="false"
     fit-margin-top="0"
     fit-margin-left="0"
     fit-margin-right="0"
     fit-margin-bottom="0"
     inkscape:zoom="1.4142136"
     inkscape:cx="253.23582"
     inkscape:cy="201.74461"
     inkscape:window-x="328"
     inkscape:window-y="1106"
     inkscape:window-maximized="1"
     inkscape:current-layer="Capa_1"
     inkscape:document-rotation="0" />
  <path
     id="path2"
     d="m 216.33984,0 c -17.8381,0 -33.02316,13.682853 -34.89648,31.423828 l -0.002,0.01172 -3.41016,32.533203 c -1.19515,0.472784 -2.46375,0.952098 -3.5918,1.423828 v -0.002 c -12.78203,5.083919 -18.29359,7.949044 -29.30664,14.796875 -8.1394,4.903686 -15.95587,10.464333 -23.4375,16.417969 L 91.703125,83.246094 h -0.002 C 75.404621,75.988217 55.959873,82.298169 47.035156,97.748047 l -0.002,0.002 -42.3789061,73.398443 h 0.00195 c -8.9212752,15.44735 -4.66952745,35.44393 9.7617191,45.93554 l 0.0078,0.006 L 41,236.38086 c -1.593949,10.75615 -2.519531,21.65129 -2.519531,32.51953 0,10.87014 0.927843,21.7668 2.521484,32.52149 l -26.580078,19.29296 -0.0059,0.006 C -0.01552578,331.21082 -4.2667475,351.20709 4.65625,366.6543 l 42.378906,73.39843 0.002,0.002 c 8.92321,15.44684 28.366803,21.75836 44.664063,14.5 h 0.002 L 121.71094,441.1875 c 17.0988,13.61338 36.01463,24.54932 56.3125,32.55273 l 3.41797,32.63086 0.002,0.0117 c 1.87398,17.73789 17.05827,31.41797 34.89648,31.41797 h 84.76172 c 17.83811,0 33.02277,-13.68478 34.89453,-31.42578 l 0.002,-0.01 3.41992,-32.625 c 20.29459,-8.00053 39.21095,-18.93696 56.3125,-32.55273 l 30.00781,13.36719 h 0.002 c 16.29704,7.25896 35.7446,0.94792 44.66797,-14.50391 l 42.37891,-73.39648 h -0.002 c 8.92128,-15.44736 4.66953,-35.44394 -9.76172,-45.93555 l -0.008,-0.006 -26.57421,-19.29297 c 1.59395,-10.75615 2.51953,-21.65129 2.51953,-32.51953 0,-10.87014 -0.92785,-21.7668 -2.52149,-32.52148 l 26.58008,-19.29297 0.006,-0.006 c 14.43034,-10.48925 18.68179,-30.48301 9.76172,-45.92969 v -0.002 L 470.4082,97.75 l -0.002,-0.0039 c -8.9245,-15.450636 -28.37038,-21.762171 -44.66797,-14.5 L 395.73047,96.613281 C 378.63056,82.998773 359.71595,72.063069 339.41797,64.060547 L 336,31.427734 335.998,31.416014 C 334.12395,13.678567 318.93905,0 301.10156,0 Z m 5.14454,40.800781 h 74.47265 l 3.23438,30.857422 v -0.01172 c 1.37061,13.207854 10.037,24.524687 22.48632,29.171877 18.55667,6.95651 35.72008,16.87563 51.07032,29.52344 10.2014,8.40857 24.43405,10.28671 36.50195,4.91211 h 0.002 l 28.39453,-12.64844 37.23243,64.49023 -25.13868,18.24805 -0.01,0.006 c -10.66441,7.7555 -16.14874,20.98371 -13.99805,34.00586 v 0.004 c 1.60812,9.7252 2.42578,19.67827 2.42578,29.53906 0,9.8616 -0.81694,19.8172 -2.42578,29.54297 l -0.002,0.004 c -2.14905,13.01855 3.3382,26.24897 14.00586,34.00586 l 0.008,0.006 25.13477,18.24609 -37.23438,64.49024 -28.39258,-12.64844 h -0.002 c -12.06974,-5.37629 -26.30265,-3.49635 -36.50391,4.91211 -15.3547,12.65147 -32.52194,22.57176 -51.07617,29.52539 l 0.0137,-0.004 c -12.4513,4.64957 -21.12092,15.96343 -22.49218,29.16796 v -0.0117 L 295.95703,497 H 221.48438 L 218.25,466.14258 v 0.0117 C 216.87996,452.952 208.22018,441.63912 195.7793,436.98826 l -0.0156,-0.006 c -18.55675,-6.95619 -35.71921,-16.87692 -51.06836,-29.52344 h -0.002 c -10.20129,-8.40775 -24.43476,-10.28952 -36.50391,-4.9121 l -28.394528,12.64843 -37.234375,-64.49023 25.138672,-18.25 0.0098,-0.006 c 10.663103,-7.75456 16.148684,-20.98209 13.998047,-34.00391 v -0.004 c -1.608076,-9.72494 -2.425781,-19.68023 -2.425781,-29.54102 0,-9.8616 0.816944,-19.8172 2.425781,-29.54297 l 0.002,-0.004 C 83.85809,226.33447 78.37085,213.10404 67.703187,205.34716 l -0.0078,-0.006 -25.134765,-18.2461 37.236328,-64.49023 28.39257,12.64844 c 12.06837,5.37707 26.29972,3.4968 36.5,-4.90821 l 0.004,-0.002 c 6.78279,-5.586 14.02836,-10.71201 21.49414,-15.20898 13.48787,-8.19176 13.69262,-7.98083 23.99414,-12.10352 h 0.004 c 1.71105,-0.71607 3.54797,-1.44453 5.61133,-2.22266 l -0.0391,0.0137 C 208.20911,96.17271 216.87874,84.858838 218.25,71.654297 v 0.01172 z M 118.74805,438.94336 c 0.002,0.001 0.004,0.002 0.006,0.004 -0.002,-10e-4 -0.004,-5e-4 -0.006,-0.002 z"
     sodipodi:nodetypes="sccccccccccccccccsccccccccccccssccccccccccccsccccccccccccssccccccccccccccscccccccccccccccccsscccccccccsccccccccccccccccccccc"
     style="stroke:none;stroke-opacity:1;fill:#000000;fill-opacity:1" />
  <path
     id="path4"
     style="fill:#000000;fill-opacity:1"
     transform="translate(2.720723,12.900391)"
     d="m 179.81445,177.79883 c -20.0319,1.2e-4 -40.08095,7.63151 -55.33203,22.87695 -14.76584,14.77608 -22.91211,34.44865 -22.91211,55.32422 0,20.87556 8.14627,40.54814 22.91407,55.32617 14.74813,14.74711 34.42188,22.88281 55.32617,22.88281 20.91502,0 40.58683,-8.13518 55.32422,-22.88281 L 256,290.46094 l 20.86719,20.86523 c 1.19537,1.19537 2.402,2.33033 3.59179,3.375 3.87062,3.40032 9.82198,3.01467 13.22266,-0.85742 3.39982,-3.8713 3.01606,-9.82263 -0.85547,-13.22266 l -0.002,-0.002 c -0.87858,-0.77092 -1.7894,-1.62923 -2.70508,-2.54492 l -27.49023,-27.49024 c -3.64294,-3.64417 -9.60815,-3.64381 -13.25196,0 l -27.49218,27.49219 c -11.21743,11.22422 -26.134,17.39453 -42.07227,17.39453 -15.92996,0 -30.84758,-6.17081 -42.07227,-17.39453 C 126.49186,286.81809 120.3125,271.90036 120.3125,256 c 0,-15.90043 6.17861,-30.8193 17.42383,-42.07422 23.21685,-23.20812 60.94265,-23.20677 84.15039,0 l 27.49023,27.49024 c 3.64264,3.64388 9.60649,3.64351 13.25,0 l 27.49024,-27.49024 c 23.20673,-23.20673 60.93156,-23.20718 84.14843,0 23.21188,23.21188 23.21188,60.93656 0,84.14844 -11.22674,11.22578 -26.14425,17.39648 -42.07421,17.39648 -5.91185,0 -11.75586,-0.86399 -17.3711,-2.5664 -4.92947,-1.49552 -10.19014,1.31447 -11.68554,6.24609 -1.4952,4.93092 1.31448,10.19209 6.24609,11.6875 7.38145,2.23749 15.0563,3.37109 22.80859,3.37109 20.90429,0 40.57804,-8.1357 55.32617,-22.88281 30.49514,-30.49513 30.49417,-80.15725 -0.002,-110.65234 -30.50012,-30.48783 -80.16017,-30.48826 -110.64844,0 L 256,221.53906 235.13477,200.67383 c -15.24413,-15.24413 -35.28841,-22.87514 -55.32032,-22.875 z m 152.3711,48.71299 c 7.55923,1.1e-4 15.10445,2.87007 20.86133,8.62695 5.58162,5.58163 8.64062,12.96665 8.64062,20.86133 0,7.89468 -3.05879,15.27856 -8.64062,20.86133 -11.51491,11.51396 -30.20581,11.51396 -41.72071,0 L 290.46484,256 311.32422,235.13867 c 5.75799,-5.75752 13.3021,-8.62707 20.86133,-8.62695 z m -152.3711,0.004 c 7.9082,0 15.29167,3.05433 20.86133,8.62305 L 221.53711,256 200.67578,276.86133 c -5.56958,5.56864 -12.95418,8.62305 -20.86133,8.62305 -7.90835,0 -15.29175,-3.05348 -20.86133,-8.62305 -5.58183,-5.58277 -8.64062,-12.96665 -8.64062,-20.86133 0,-7.89468 3.05879,-15.27856 8.64062,-20.86133 5.56845,-5.56844 12.95419,-8.62305 20.86133,-8.62305 z"
     sodipodi:nodetypes="scscscccccccccscscscccssccscscsccscsscssccccccccccscsccc" />
</svg>
